<svg xmlns="http://www.w3.org/2000/svg" version="1.1" xmlns:xlink="http://www.w3.org/1999/xlink" xmlns:svgjs="http://svgjs.com/svgjs" width="1920" height="1080" preserveAspectRatio="none" viewBox="0 0 1920 1080"><g mask="url(&quot;#SvgjsMask1024&quot;)" fill="none"><rect width="1920" height="1080" x="0" y="0" fill="rgba(1, 3, 6, 1)"></rect><path d="M102 1080L1182 0L1366.5 0L286.5 1080z" fill="url(#SvgjsLinearGradient1025)"></path><path d="M724.6 1080L1804.6 0L2098.6 0L1018.6 1080z" fill="url(#SvgjsLinearGradient1025)"></path><path d="M1902 1080L822 0L588 0L1668 1080z" fill="url(#SvgjsLinearGradient1026)"></path><path d="M1241.4 1080L161.4000000000001 0L-704.0999999999999 0L375.9000000000001 1080z" fill="url(#SvgjsLinearGradient1026)"></path><path d="M1077.3588131127492 1080L1920 237.3588131127492L1920 1080z" fill="url(#SvgjsLinearGradient1025)"></path><path d="M0 1080L842.6411868872508 1080L 0 237.3588131127492z" fill="url(#SvgjsLinearGradient1026)"></path></g><defs><mask id="SvgjsMask1024"><rect width="1920" height="1080" fill="#ffffff"></rect></mask><linearGradient x1="0%" y1="100%" x2="100%" y2="0%" id="SvgjsLinearGradient1025"><stop stop-color="rgba(15, 70, 185, 0.2)" offset="0"></stop><stop stop-opacity="0" stop-color="rgba(15, 70, 185, 0.2)" offset="0.66"></stop></linearGradient><linearGradient x1="100%" y1="100%" x2="0%" y2="0%" id="SvgjsLinearGradient1026"><stop stop-color="rgba(15, 70, 185, 0.2)" offset="0"></stop><stop stop-opacity="0" stop-color="rgba(15, 70, 185, 0.2)" offset="0.66"></stop></linearGradient></defs></svg>